<svg width="57" height="15" viewBox="0 0 57 15" fill="none" xmlns="http://www.w3.org/2000/svg">
  <path d="M0.457031 9.15723C0.457031 8.20801 0.641602 7.36426 1.01074 6.62598C1.37988 5.88184 1.91016 5.31055 2.60156 4.91211C3.29297 4.51367 4.10449 4.31445 5.03613 4.31445C6.45996 4.31445 7.58203 4.75684 8.40234 5.6416C9.22266 6.52051 9.63281 7.71875 9.63281 9.23633V9.3418C9.63281 10.8242 9.21973 12.002 8.39355 12.875C7.57324 13.7422 6.45996 14.1758 5.05371 14.1758C3.7002 14.1758 2.61328 13.7715 1.79297 12.9629C0.972656 12.1484 0.530273 11.0469 0.46582 9.6582L0.457031 9.15723ZM3.41895 9.3418C3.41895 10.2207 3.55664 10.8652 3.83203 11.2754C4.10742 11.6855 4.51465 11.8906 5.05371 11.8906C6.1084 11.8906 6.64746 11.0791 6.6709 9.45605V9.15723C6.6709 7.45215 6.12598 6.59961 5.03613 6.59961C4.0459 6.59961 3.50977 7.33496 3.42773 8.80566L3.41895 9.3418ZM15.0982 4.49023L15.1949 5.60645C15.8511 4.74512 16.7564 4.31445 17.9107 4.31445C18.9009 4.31445 19.6392 4.61035 20.1255 5.20215C20.6177 5.79395 20.8726 6.68457 20.8902 7.87402V14H17.9195V7.99707C17.9195 7.5166 17.8228 7.16504 17.6295 6.94238C17.4361 6.71387 17.0845 6.59961 16.5748 6.59961C15.9947 6.59961 15.564 6.82812 15.2828 7.28516V14H12.3209V4.49023H15.0982ZM27.1027 14H24.132V0.5H27.1027V14ZM33.4997 14H30.529V4.49023H33.4997V14ZM30.3532 2.03809C30.3532 1.61621 30.5055 1.27051 30.8102 1.00098C31.1149 0.731445 31.5104 0.59668 31.9968 0.59668C32.4831 0.59668 32.8786 0.731445 33.1833 1.00098C33.488 1.27051 33.6403 1.61621 33.6403 2.03809C33.6403 2.45996 33.488 2.80566 33.1833 3.0752C32.8786 3.34473 32.4831 3.47949 31.9968 3.47949C31.5104 3.47949 31.1149 3.34473 30.8102 3.0752C30.5055 2.80566 30.3532 2.45996 30.3532 2.03809ZM39.4924 4.49023L39.5891 5.60645C40.2454 4.74512 41.1506 4.31445 42.3049 4.31445C43.2952 4.31445 44.0334 4.61035 44.5198 5.20215C45.012 5.79395 45.2668 6.68457 45.2844 7.87402V14H42.3137V7.99707C42.3137 7.5166 42.217 7.16504 42.0237 6.94238C41.8303 6.71387 41.4788 6.59961 40.969 6.59961C40.3889 6.59961 39.9582 6.82812 39.677 7.28516V14H36.7151V4.49023H39.4924ZM52.9734 14.1758C51.5145 14.1758 50.3338 13.7422 49.4314 12.875C48.5291 12.002 48.0779 10.8682 48.0779 9.47363V9.22754C48.0779 8.25488 48.2566 7.39648 48.6141 6.65234C48.9773 5.9082 49.5047 5.33398 50.1961 4.92969C50.8875 4.51953 51.7078 4.31445 52.657 4.31445C53.993 4.31445 55.0477 4.73047 55.8211 5.5625C56.5945 6.38867 56.9813 7.54297 56.9813 9.02539V10.1768H51.0926C51.198 10.71 51.4295 11.1289 51.7869 11.4336C52.1443 11.7383 52.6072 11.8906 53.1756 11.8906C54.1131 11.8906 54.8455 11.5625 55.3729 10.9062L56.7264 12.5059C56.3572 13.0156 55.8328 13.4229 55.1531 13.7275C54.4793 14.0264 53.7527 14.1758 52.9734 14.1758ZM52.6395 6.59961C51.7723 6.59961 51.2566 7.17383 51.0926 8.32227H54.0809V8.09375C54.0926 7.61914 53.9725 7.25293 53.7205 6.99512C53.4686 6.73145 53.1082 6.59961 52.6395 6.59961Z" fill="#333333"/>
</svg>
