<svg width="57" height="21" viewBox="0 0 57 21" fill="none" xmlns="http://www.w3.org/2000/svg">
  <path d="M7.64844 15.4297H16.3145V20H0.160156V16.6953L8.59766 5.55078H0.529297V0.980469H16.1211V4.17969L7.64844 15.4297ZM18.1602 10.3145C18.1602 8.41602 18.5293 6.72852 19.2676 5.25195C20.0059 3.76367 21.0664 2.62109 22.4492 1.82422C23.832 1.02734 25.4551 0.628906 27.3184 0.628906C30.166 0.628906 32.4102 1.51367 34.0508 3.2832C35.6914 5.04102 36.5117 7.4375 36.5117 10.4727V10.6836C36.5117 13.6484 35.6855 16.0039 34.0332 17.75C32.3926 19.4844 30.166 20.3516 27.3535 20.3516C24.6465 20.3516 22.4727 19.543 20.832 17.9258C19.1914 16.2969 18.3066 14.0938 18.1777 11.3164L18.1602 10.3145ZM24.084 10.6836C24.084 12.4414 24.3594 13.7305 24.9102 14.5508C25.4609 15.3711 26.2754 15.7812 27.3535 15.7812C29.4629 15.7812 30.541 14.1582 30.5879 10.9121V10.3145C30.5879 6.9043 29.498 5.19922 27.3184 5.19922C25.3379 5.19922 24.2656 6.66992 24.1016 9.61133L24.084 10.6836ZM38.375 10.3145C38.375 8.41602 38.7441 6.72852 39.4824 5.25195C40.2207 3.76367 41.2812 2.62109 42.6641 1.82422C44.0469 1.02734 45.6699 0.628906 47.5332 0.628906C50.3809 0.628906 52.625 1.51367 54.2656 3.2832C55.9062 5.04102 56.7266 7.4375 56.7266 10.4727V10.6836C56.7266 13.6484 55.9004 16.0039 54.248 17.75C52.6074 19.4844 50.3809 20.3516 47.5684 20.3516C44.8613 20.3516 42.6875 19.543 41.0469 17.9258C39.4062 16.2969 38.5215 14.0938 38.3926 11.3164L38.375 10.3145ZM44.2988 10.6836C44.2988 12.4414 44.5742 13.7305 45.125 14.5508C45.6758 15.3711 46.4902 15.7812 47.5684 15.7812C49.6777 15.7812 50.7559 14.1582 50.8027 10.9121V10.3145C50.8027 6.9043 49.7129 5.19922 47.5332 5.19922C45.5527 5.19922 44.4805 6.66992 44.3164 9.61133L44.2988 10.6836Z" fill="#333333"/>
</svg>
